# xmcd
#
# Track frame offsets:
# 150
# 14707
# 27610
# 41798
# 58568
# 72427
# 89698
# 100892
# 115025
# 127116
# 141334
# 154562
# 175757
# 186769
# 198972
# 211555
# 232779
# 249945
# 266621
# 286103
# 301033
#
# Disc length: 4259 seconds
#
# Revision: 0
# Processed by: cddbd v1.4PL0 Copyright (c) Steve Scherf et al.
# Submitted via: Audion 3.0.2 (http://www.panic.com/audion/)
#
DISCID=2310a115
DTITLE=pogues - pogues rarities vol.3
DYEAR=1900
DGENRE=
TTITLE0=yeah, yeah ,yeah
TTITLE1=honky tonk woman
TTITLE2=the limerick rake
TTITLE3=young ned of the hill dub version
TTITLE4=train of love
TTITLE5=every man is a king
TTITLE6=the star of the county down
TTITLE7=jack's heroes
TTITLE8=whisky inthe jar
TTITLE9=the bastard landlord
TTITLE10=hell's ditch  instu.
TTITLE11=miss otis regrets
TTITLE12=got a lot of loving to do
TTITLE13=the curse of love
TTITLE14=infinity
TTITLE15=a rainly night in soho remix
TTITLE16=unknown3
TTITLE17=the one ond only
TTITLE18=turkish song of the damned live
TTITLE19=unknown4
TTITLE20=the dunes
EXTD=
EXTT0=
EXTT1=
EXTT2=
EXTT3=
EXTT4=
EXTT5=
EXTT6=
EXTT7=
EXTT8=
EXTT9=
EXTT10=
EXTT11=
EXTT12=
EXTT13=
EXTT14=
EXTT15=
EXTT16=
EXTT17=
EXTT18=
EXTT19=
EXTT20=
PLAYORDER=
